<svg width="67" height="19" viewBox="0 0 67 19" fill="none" xmlns="http://www.w3.org/2000/svg">
<rect width="58" height="19" rx="9.5" fill="#E6E6F2"/>
<path d="M17.696 14H16.2983L19.4389 5.27273H20.9602L24.1009 14H22.7031L20.2358 6.85795H20.1676L17.696 14ZM17.9304 10.5824H22.4645V11.6903H17.9304V10.5824ZM27.9105 14.1321C27.277 14.1321 26.7315 13.9886 26.2741 13.7017C25.8196 13.4119 25.4702 13.0128 25.2259 12.5043C24.9815 11.9957 24.8594 11.4134 24.8594 10.7571C24.8594 10.0923 24.9844 9.50568 25.2344 8.99716C25.4844 8.4858 25.8366 8.08665 26.2912 7.79972C26.7457 7.51278 27.2813 7.36932 27.8977 7.36932C28.3949 7.36932 28.8381 7.46165 29.2273 7.64631C29.6165 7.82812 29.9304 8.08381 30.169 8.41335C30.4105 8.7429 30.554 9.12784 30.5994 9.56818H29.3594C29.2912 9.26136 29.1349 8.99716 28.8906 8.77557C28.6491 8.55398 28.3253 8.44318 27.919 8.44318C27.5639 8.44318 27.2528 8.53693 26.9858 8.72443C26.7216 8.90909 26.5156 9.1733 26.3679 9.51705C26.2202 9.85795 26.1463 10.2614 26.1463 10.7273C26.1463 11.2045 26.2188 11.6165 26.3636 11.9631C26.5085 12.3097 26.7131 12.5781 26.9773 12.7685C27.2443 12.9588 27.5582 13.054 27.919 13.054C28.1605 13.054 28.3793 13.0099 28.5753 12.9219C28.7741 12.831 28.9403 12.7017 29.0739 12.5341C29.2102 12.3665 29.3054 12.1648 29.3594 11.929H30.5994C30.554 12.3523 30.4162 12.7301 30.1861 13.0625C29.956 13.3949 29.6477 13.6562 29.2614 13.8466C28.8778 14.0369 28.4276 14.1321 27.9105 14.1321ZM35.0174 7.45455V8.47727H31.4421V7.45455H35.0174ZM32.4009 5.88636H33.6751V12.0781C33.6751 12.3253 33.712 12.5114 33.7859 12.6364C33.8597 12.7585 33.9549 12.8423 34.0714 12.8878C34.1907 12.9304 34.32 12.9517 34.4592 12.9517C34.5614 12.9517 34.6509 12.9446 34.7276 12.9304C34.8043 12.9162 34.864 12.9048 34.9066 12.8963L35.1367 13.9489C35.0629 13.9773 34.9577 14.0057 34.8214 14.0341C34.685 14.0653 34.5146 14.0824 34.31 14.0852C33.9748 14.0909 33.6623 14.0312 33.3725 13.9062C33.0827 13.7812 32.8484 13.5881 32.6694 13.3267C32.4904 13.0653 32.4009 12.7372 32.4009 12.3423V5.88636ZM36.4268 14V7.45455H37.701V14H36.4268ZM37.0703 6.4446C36.8487 6.4446 36.6584 6.37074 36.4993 6.22301C36.343 6.07244 36.2649 5.89347 36.2649 5.68608C36.2649 5.47585 36.343 5.29687 36.4993 5.14915C36.6584 4.99858 36.8487 4.9233 37.0703 4.9233C37.2919 4.9233 37.4808 4.99858 37.6371 5.14915C37.7962 5.29687 37.8757 5.47585 37.8757 5.68608C37.8757 5.89347 37.7962 6.07244 37.6371 6.22301C37.4808 6.37074 37.2919 6.4446 37.0703 6.4446ZM45.0146 7.45455L42.641 14H41.2773L38.8995 7.45455H40.2674L41.9251 12.4915H41.9933L43.6467 7.45455H45.0146ZM48.8104 14.1321C48.1655 14.1321 47.6101 13.9943 47.1442 13.7188C46.6811 13.4403 46.3232 13.0497 46.0703 12.5469C45.8203 12.0412 45.6953 11.4489 45.6953 10.7699C45.6953 10.0994 45.8203 9.50852 46.0703 8.99716C46.3232 8.4858 46.6754 8.08665 47.1271 7.79972C47.5817 7.51278 48.1129 7.36932 48.7209 7.36932C49.0902 7.36932 49.4482 7.4304 49.7947 7.55256C50.1413 7.67472 50.4524 7.86648 50.728 8.12784C51.0036 8.3892 51.2209 8.72869 51.38 9.14631C51.5391 9.56108 51.6186 10.0653 51.6186 10.6591V11.1108H46.4155V10.1562H50.37C50.37 9.82102 50.3018 9.52415 50.1655 9.26562C50.0291 9.00426 49.8374 8.7983 49.5902 8.64773C49.3459 8.49716 49.0589 8.42188 48.7294 8.42188C48.3714 8.42188 48.0589 8.50994 47.7919 8.68608C47.5277 8.85937 47.3232 9.08665 47.1783 9.3679C47.0362 9.64631 46.9652 9.94886 46.9652 10.2756V11.0213C46.9652 11.4588 47.0419 11.831 47.1953 12.1378C47.3516 12.4446 47.5689 12.679 47.8473 12.8409C48.1257 13 48.451 13.0795 48.8232 13.0795C49.0646 13.0795 49.2848 13.0455 49.4837 12.9773C49.6825 12.9062 49.8544 12.8011 49.9993 12.6619C50.1442 12.5227 50.255 12.3509 50.3317 12.1463L51.5376 12.3636C51.4411 12.7187 51.2678 13.0298 51.0178 13.2969C50.7706 13.5611 50.4595 13.767 50.0845 13.9148C49.7124 14.0597 49.2876 14.1321 48.8104 14.1321Z" fill="#4A4AFF"/>
<circle cx="8" cy="10" r="3" fill="#4A4AFF"/>
</svg>
