<svg width="67" height="19" viewBox="0 0 67 19" fill="none" xmlns="http://www.w3.org/2000/svg">
<rect width="67" height="19" rx="9.5" fill="#F2F0F9"/>
<path d="M18.2756 5.27273V14H16.9588V5.27273H18.2756ZM21.3651 10.1136V14H20.0909V7.45455H21.3139V8.51989H21.3949C21.5455 8.1733 21.7813 7.89489 22.1023 7.68466C22.4261 7.47443 22.8338 7.36932 23.3253 7.36932C23.7713 7.36932 24.1619 7.46307 24.4972 7.65057C24.8324 7.83523 25.0923 8.1108 25.277 8.47727C25.4616 8.84375 25.554 9.29687 25.554 9.83665V14H24.2798V9.99006C24.2798 9.51562 24.1563 9.14489 23.9091 8.87784C23.6619 8.60795 23.3224 8.47301 22.8906 8.47301C22.5952 8.47301 22.3324 8.53693 22.1023 8.66477C21.875 8.79261 21.6946 8.98011 21.5611 9.22727C21.4304 9.47159 21.3651 9.76705 21.3651 10.1136ZM29.1676 14.1449C28.7528 14.1449 28.3778 14.0682 28.0426 13.9148C27.7074 13.7585 27.4418 13.5327 27.2457 13.2372C27.0526 12.9418 26.956 12.5795 26.956 12.1506C26.956 11.7812 27.027 11.4773 27.169 11.2386C27.3111 11 27.5028 10.8111 27.7443 10.6719C27.9858 10.5327 28.2557 10.4276 28.554 10.3565C28.8523 10.2855 29.1563 10.2315 29.4659 10.1946C29.858 10.1491 30.1761 10.1122 30.4205 10.0838C30.6648 10.0526 30.8423 10.0028 30.9531 9.93466C31.0639 9.86648 31.1193 9.75568 31.1193 9.60227V9.57244C31.1193 9.20028 31.0142 8.91193 30.804 8.70739C30.5966 8.50284 30.2869 8.40057 29.875 8.40057C29.446 8.40057 29.108 8.49574 28.8608 8.68608C28.6165 8.87358 28.4474 9.08239 28.3537 9.3125L27.1562 9.03977C27.2983 8.64205 27.5057 8.32102 27.7784 8.0767C28.054 7.82955 28.3707 7.65057 28.7287 7.53977C29.0866 7.42614 29.4631 7.36932 29.858 7.36932C30.1193 7.36932 30.3963 7.40057 30.6889 7.46307C30.9844 7.52273 31.2599 7.63352 31.5156 7.79545C31.7741 7.95739 31.9858 8.18892 32.1506 8.49006C32.3153 8.78835 32.3977 9.17614 32.3977 9.65341V14H31.1534V13.1051H31.1023C31.0199 13.2699 30.8963 13.4318 30.7315 13.5909C30.5668 13.75 30.3551 13.8821 30.0966 13.9872C29.8381 14.0923 29.5284 14.1449 29.1676 14.1449ZM29.4446 13.1222C29.7969 13.1222 30.098 13.0526 30.348 12.9134C30.6009 12.7741 30.7926 12.5923 30.9233 12.3679C31.0568 12.1406 31.1236 11.8977 31.1236 11.6392V10.7955C31.0781 10.8409 30.9901 10.8835 30.8594 10.9233C30.7315 10.9602 30.5852 10.9929 30.4205 11.0213C30.2557 11.0469 30.0952 11.071 29.9389 11.0938C29.7827 11.1136 29.652 11.1307 29.5469 11.1449C29.2997 11.1761 29.0739 11.2287 28.8693 11.3026C28.6676 11.3764 28.5057 11.483 28.3835 11.6222C28.2642 11.7585 28.2045 11.9403 28.2045 12.1676C28.2045 12.483 28.321 12.7216 28.554 12.8835C28.7869 13.0426 29.0838 13.1222 29.4446 13.1222ZM36.8519 14.1321C36.2184 14.1321 35.6729 13.9886 35.2156 13.7017C34.761 13.4119 34.4116 13.0128 34.1673 12.5043C33.9229 11.9957 33.8008 11.4134 33.8008 10.7571C33.8008 10.0923 33.9258 9.50568 34.1758 8.99716C34.4258 8.4858 34.7781 8.08665 35.2326 7.79972C35.6871 7.51278 36.2227 7.36932 36.8391 7.36932C37.3363 7.36932 37.7795 7.46165 38.1687 7.64631C38.5579 7.82812 38.8718 8.08381 39.1104 8.41335C39.3519 8.7429 39.4954 9.12784 39.5408 9.56818H38.3008C38.2326 9.26136 38.0763 8.99716 37.832 8.77557C37.5906 8.55398 37.2667 8.44318 36.8604 8.44318C36.5053 8.44318 36.1942 8.53693 35.9272 8.72443C35.663 8.90909 35.457 9.1733 35.3093 9.51705C35.1616 9.85795 35.0877 10.2614 35.0877 10.7273C35.0877 11.2045 35.1602 11.6165 35.305 11.9631C35.4499 12.3097 35.6545 12.5781 35.9187 12.7685C36.1857 12.9588 36.4996 13.054 36.8604 13.054C37.1019 13.054 37.3207 13.0099 37.5167 12.9219C37.7156 12.831 37.8817 12.7017 38.0153 12.5341C38.1516 12.3665 38.2468 12.1648 38.3008 11.929H39.5408C39.4954 12.3523 39.3576 12.7301 39.1275 13.0625C38.8974 13.3949 38.5891 13.6562 38.2028 13.8466C37.8192 14.0369 37.369 14.1321 36.8519 14.1321ZM43.9588 7.45455V8.47727H40.3835V7.45455H43.9588ZM41.3423 5.88636H42.6165V12.0781C42.6165 12.3253 42.6534 12.5114 42.7273 12.6364C42.8011 12.7585 42.8963 12.8423 43.0128 12.8878C43.1321 12.9304 43.2614 12.9517 43.4006 12.9517C43.5028 12.9517 43.5923 12.9446 43.669 12.9304C43.7457 12.9162 43.8054 12.9048 43.848 12.8963L44.0781 13.9489C44.0043 13.9773 43.8991 14.0057 43.7628 14.0341C43.6264 14.0653 43.456 14.0824 43.2514 14.0852C42.9162 14.0909 42.6037 14.0312 42.3139 13.9062C42.0241 13.7812 41.7898 13.5881 41.6108 13.3267C41.4318 13.0653 41.3423 12.7372 41.3423 12.3423V5.88636ZM45.3683 14V7.45455H46.6424V14H45.3683ZM46.0117 6.4446C45.7901 6.4446 45.5998 6.37074 45.4407 6.22301C45.2844 6.07244 45.2063 5.89347 45.2063 5.68608C45.2063 5.47585 45.2844 5.29687 45.4407 5.14915C45.5998 4.99858 45.7901 4.9233 46.0117 4.9233C46.2333 4.9233 46.4222 4.99858 46.5785 5.14915C46.7376 5.29687 46.8171 5.47585 46.8171 5.68608C46.8171 5.89347 46.7376 6.07244 46.5785 6.22301C46.4222 6.37074 46.2333 6.4446 46.0117 6.4446ZM53.956 7.45455L51.5824 14H50.2188L47.8409 7.45455H49.2088L50.8665 12.4915H50.9347L52.5881 7.45455H53.956ZM57.7518 14.1321C57.1069 14.1321 56.5515 13.9943 56.0856 13.7188C55.6225 13.4403 55.2646 13.0497 55.0117 12.5469C54.7617 12.0412 54.6367 11.4489 54.6367 10.7699C54.6367 10.0994 54.7617 9.50852 55.0117 8.99716C55.2646 8.4858 55.6168 8.08665 56.0685 7.79972C56.5231 7.51278 57.0543 7.36932 57.6623 7.36932C58.0316 7.36932 58.3896 7.4304 58.7362 7.55256C59.0827 7.67472 59.3938 7.86648 59.6694 8.12784C59.945 8.3892 60.1623 8.72869 60.3214 9.14631C60.4805 9.56108 60.56 10.0653 60.56 10.6591V11.1108H55.3569V10.1562H59.3114C59.3114 9.82102 59.2433 9.52415 59.1069 9.26562C58.9705 9.00426 58.7788 8.7983 58.5316 8.64773C58.2873 8.49716 58.0004 8.42188 57.6708 8.42188C57.3129 8.42188 57.0004 8.50994 56.7333 8.68608C56.4691 8.85937 56.2646 9.08665 56.1197 9.3679C55.9776 9.64631 55.9066 9.94886 55.9066 10.2756V11.0213C55.9066 11.4588 55.9833 11.831 56.1367 12.1378C56.293 12.4446 56.5103 12.679 56.7887 12.8409C57.0671 13 57.3924 13.0795 57.7646 13.0795C58.006 13.0795 58.2262 13.0455 58.4251 12.9773C58.6239 12.9062 58.7958 12.8011 58.9407 12.6619C59.0856 12.5227 59.1964 12.3509 59.2731 12.1463L60.479 12.3636C60.3825 12.7187 60.2092 13.0298 59.9592 13.2969C59.712 13.5611 59.4009 13.767 59.0259 13.9148C58.6538 14.0597 58.229 14.1321 57.7518 14.1321Z" fill="#6E6893"/>
<circle cx="8" cy="10" r="3" fill="#6E6893"/>
</svg>
