<svg width="70" height="19" viewBox="0 0 70 19" fill="none" xmlns="http://www.w3.org/2000/svg">
<rect width="70" height="19" rx="9.5" fill="#FFE0E0"/>
<path d="M24.5398 9.63636C24.5398 10.5682 24.3693 11.3693 24.0284 12.0398C23.6875 12.7074 23.2202 13.2216 22.6264 13.5824C22.0355 13.9403 21.3636 14.1193 20.6108 14.1193C19.8551 14.1193 19.1804 13.9403 18.5866 13.5824C17.9957 13.2216 17.5298 12.706 17.1889 12.0355C16.848 11.3651 16.6776 10.5653 16.6776 9.63636C16.6776 8.70455 16.848 7.90483 17.1889 7.23722C17.5298 6.56676 17.9957 6.05256 18.5866 5.6946C19.1804 5.33381 19.8551 5.15341 20.6108 5.15341C21.3636 5.15341 22.0355 5.33381 22.6264 5.6946C23.2202 6.05256 23.6875 6.56676 24.0284 7.23722C24.3693 7.90483 24.5398 8.70455 24.5398 9.63636ZM23.2358 9.63636C23.2358 8.92614 23.1207 8.32812 22.8906 7.84233C22.6634 7.35369 22.3509 6.98438 21.9531 6.73438C21.5582 6.48153 21.1108 6.35511 20.6108 6.35511C20.108 6.35511 19.6591 6.48153 19.2642 6.73438C18.8693 6.98438 18.5568 7.35369 18.3267 7.84233C18.0994 8.32812 17.9858 8.92614 17.9858 9.63636C17.9858 10.3466 18.0994 10.946 18.3267 11.4347C18.5568 11.9205 18.8693 12.2898 19.2642 12.5426C19.6591 12.7926 20.108 12.9176 20.6108 12.9176C21.1108 12.9176 21.5582 12.7926 21.9531 12.5426C22.3509 12.2898 22.6634 11.9205 22.8906 11.4347C23.1207 10.946 23.2358 10.3466 23.2358 9.63636ZM31.6786 7.45455L29.305 14H27.9414L25.5636 7.45455H26.9315L28.5891 12.4915H28.6573L30.3107 7.45455H31.6786ZM35.4744 14.1321C34.8295 14.1321 34.2741 13.9943 33.8082 13.7188C33.3452 13.4403 32.9872 13.0497 32.7344 12.5469C32.4844 12.0412 32.3594 11.4489 32.3594 10.7699C32.3594 10.0994 32.4844 9.50852 32.7344 8.99716C32.9872 8.4858 33.3395 8.08665 33.7912 7.79972C34.2457 7.51278 34.777 7.36932 35.3849 7.36932C35.7543 7.36932 36.1122 7.4304 36.4588 7.55256C36.8054 7.67472 37.1165 7.86648 37.392 8.12784C37.6676 8.3892 37.8849 8.72869 38.044 9.14631C38.2031 9.56108 38.2827 10.0653 38.2827 10.6591V11.1108H33.0795V10.1562H37.0341C37.0341 9.82102 36.9659 9.52415 36.8295 9.26562C36.6932 9.00426 36.5014 8.7983 36.2543 8.64773C36.0099 8.49716 35.723 8.42188 35.3935 8.42188C35.0355 8.42188 34.723 8.50994 34.456 8.68608C34.1918 8.85937 33.9872 9.08665 33.8423 9.3679C33.7003 9.64631 33.6293 9.94886 33.6293 10.2756V11.0213C33.6293 11.4588 33.706 11.831 33.8594 12.1378C34.0156 12.4446 34.233 12.679 34.5114 12.8409C34.7898 13 35.1151 13.0795 35.4872 13.0795C35.7287 13.0795 35.9489 13.0455 36.1477 12.9773C36.3466 12.9062 36.5185 12.8011 36.6634 12.6619C36.8082 12.5227 36.919 12.3509 36.9957 12.1463L38.2017 12.3636C38.1051 12.7187 37.9318 13.0298 37.6818 13.2969C37.4347 13.5611 37.1236 13.767 36.7486 13.9148C36.3764 14.0597 35.9517 14.1321 35.4744 14.1321ZM39.6964 14V7.45455H40.9279V8.49432H40.9961C41.1154 8.14205 41.3256 7.86506 41.6268 7.66335C41.9308 7.45881 42.2745 7.35653 42.658 7.35653C42.7376 7.35653 42.8313 7.35937 42.9393 7.36506C43.0501 7.37074 43.1367 7.37784 43.1992 7.38636V8.60511C43.1481 8.59091 43.0572 8.57528 42.9265 8.55824C42.7958 8.53835 42.6651 8.52841 42.5344 8.52841C42.2333 8.52841 41.9648 8.59233 41.729 8.72017C41.4961 8.84517 41.3114 9.01989 41.1751 9.24432C41.0387 9.46591 40.9705 9.71875 40.9705 10.0028V14H39.6964ZM46.5178 14.1278C45.9893 14.1278 45.5178 13.9929 45.103 13.723C44.6911 13.4503 44.3672 13.0625 44.1314 12.5597C43.8984 12.054 43.782 11.4474 43.782 10.7401C43.782 10.0327 43.8999 9.42756 44.1357 8.92472C44.3743 8.42187 44.701 8.03693 45.1158 7.76989C45.5305 7.50284 46.0007 7.36932 46.5263 7.36932C46.9325 7.36932 47.2592 7.4375 47.5064 7.57386C47.7564 7.70739 47.9496 7.86364 48.0859 8.04261C48.2251 8.22159 48.3331 8.37926 48.4098 8.51562H48.4865V5.27273H49.7607V14H48.5163V12.9815H48.4098C48.3331 13.1207 48.2223 13.2798 48.0774 13.4588C47.9354 13.6378 47.7393 13.794 47.4893 13.9276C47.2393 14.0611 46.9155 14.1278 46.5178 14.1278ZM46.799 13.0412C47.1655 13.0412 47.4751 12.9446 47.728 12.7514C47.9837 12.5554 48.1768 12.2841 48.3075 11.9375C48.4411 11.5909 48.5078 11.1875 48.5078 10.7273C48.5078 10.2727 48.4425 9.875 48.3118 9.53409C48.1811 9.19318 47.9893 8.92756 47.7365 8.73722C47.4837 8.54687 47.1712 8.4517 46.799 8.4517C46.4155 8.4517 46.0959 8.55114 45.8402 8.75C45.5845 8.94886 45.3913 9.22017 45.2607 9.56392C45.1328 9.90767 45.0689 10.2955 45.0689 10.7273C45.0689 11.1648 45.1342 11.5582 45.2649 11.9077C45.3956 12.2571 45.5888 12.5341 45.8445 12.7386C46.103 12.9403 46.4212 13.0412 46.799 13.0412ZM55.7255 11.2855V7.45455H57.0039V14H55.7511V12.8665H55.6829C55.5323 13.2159 55.2908 13.5071 54.9585 13.7401C54.6289 13.9702 54.2184 14.0852 53.7269 14.0852C53.3065 14.0852 52.9343 13.9929 52.6104 13.8082C52.2894 13.6207 52.0366 13.3438 51.8519 12.9773C51.6701 12.6108 51.5792 12.1577 51.5792 11.6179V7.45455H52.8533V11.4645C52.8533 11.9105 52.9769 12.2656 53.2241 12.5298C53.4712 12.794 53.7923 12.9261 54.1871 12.9261C54.4258 12.9261 54.663 12.8665 54.8988 12.7472C55.1374 12.6278 55.3349 12.4474 55.4911 12.206C55.6502 11.9645 55.7283 11.6577 55.7255 11.2855ZM61.5369 14.1321C60.892 14.1321 60.3366 13.9943 59.8707 13.7188C59.4077 13.4403 59.0497 13.0497 58.7969 12.5469C58.5469 12.0412 58.4219 11.4489 58.4219 10.7699C58.4219 10.0994 58.5469 9.50852 58.7969 8.99716C59.0497 8.4858 59.402 8.08665 59.8537 7.79972C60.3082 7.51278 60.8395 7.36932 61.4474 7.36932C61.8168 7.36932 62.1747 7.4304 62.5213 7.55256C62.8679 7.67472 63.179 7.86648 63.4545 8.12784C63.7301 8.3892 63.9474 8.72869 64.1065 9.14631C64.2656 9.56108 64.3452 10.0653 64.3452 10.6591V11.1108H59.142V10.1562H63.0966C63.0966 9.82102 63.0284 9.52415 62.892 9.26562C62.7557 9.00426 62.5639 8.7983 62.3168 8.64773C62.0724 8.49716 61.7855 8.42188 61.456 8.42188C61.098 8.42188 60.7855 8.50994 60.5185 8.68608C60.2543 8.85937 60.0497 9.08665 59.9048 9.3679C59.7628 9.64631 59.6918 9.94886 59.6918 10.2756V11.0213C59.6918 11.4588 59.7685 11.831 59.9219 12.1378C60.0781 12.4446 60.2955 12.679 60.5739 12.8409C60.8523 13 61.1776 13.0795 61.5497 13.0795C61.7912 13.0795 62.0114 13.0455 62.2102 12.9773C62.4091 12.9062 62.581 12.8011 62.7259 12.6619C62.8707 12.5227 62.9815 12.3509 63.0582 12.1463L64.2642 12.3636C64.1676 12.7187 63.9943 13.0298 63.7443 13.2969C63.4972 13.5611 63.1861 13.767 62.8111 13.9148C62.4389 14.0597 62.0142 14.1321 61.5369 14.1321Z" fill="#D30000"/>
<circle cx="8" cy="10" r="3" fill="#D30000"/>
</svg>
