<svg width="70" height="19" viewBox="0 0 70 19" fill="none" xmlns="http://www.w3.org/2000/svg">
<rect width="46" height="19" rx="9.5" fill="#CDFFCD"/>
<path d="M16.9588 14V5.27273H20.0696C20.7486 5.27273 21.3111 5.39631 21.7571 5.64347C22.2031 5.89062 22.5369 6.22869 22.7585 6.65767C22.9801 7.08381 23.0909 7.56392 23.0909 8.09801C23.0909 8.63494 22.9787 9.1179 22.7543 9.54688C22.5327 9.97301 22.1974 10.3111 21.7486 10.5611C21.3026 10.8082 20.7415 10.9318 20.0653 10.9318H17.9261V9.81534H19.946C20.375 9.81534 20.723 9.74148 20.9901 9.59375C21.2571 9.44318 21.4531 9.23864 21.5781 8.98011C21.7031 8.72159 21.7656 8.42756 21.7656 8.09801C21.7656 7.76847 21.7031 7.47585 21.5781 7.22017C21.4531 6.96449 21.2557 6.7642 20.9858 6.61932C20.7188 6.47443 20.3665 6.40199 19.929 6.40199H18.2756V14H16.9588ZM26.3786 14.1449C25.9638 14.1449 25.5888 14.0682 25.2536 13.9148C24.9183 13.7585 24.6527 13.5327 24.4567 13.2372C24.2635 12.9418 24.1669 12.5795 24.1669 12.1506C24.1669 11.7812 24.2379 11.4773 24.38 11.2386C24.522 11 24.7138 10.8111 24.9553 10.6719C25.1967 10.5327 25.4666 10.4276 25.7649 10.3565C26.0632 10.2855 26.3672 10.2315 26.6768 10.1946C27.0689 10.1491 27.3871 10.1122 27.6314 10.0838C27.8757 10.0526 28.0533 10.0028 28.1641 9.93466C28.2749 9.86648 28.3303 9.75568 28.3303 9.60227V9.57244C28.3303 9.20028 28.2251 8.91193 28.0149 8.70739C27.8075 8.50284 27.4979 8.40057 27.0859 8.40057C26.657 8.40057 26.3189 8.49574 26.0717 8.68608C25.8274 8.87358 25.6584 9.08239 25.5646 9.3125L24.3672 9.03977C24.5092 8.64205 24.7166 8.32102 24.9893 8.0767C25.2649 7.82955 25.5817 7.65057 25.9396 7.53977C26.2976 7.42614 26.674 7.36932 27.0689 7.36932C27.3303 7.36932 27.6072 7.40057 27.8999 7.46307C28.1953 7.52273 28.4709 7.63352 28.7266 7.79545C28.9851 7.95739 29.1967 8.18892 29.3615 8.49006C29.5263 8.78835 29.6087 9.17614 29.6087 9.65341V14H28.3643V13.1051H28.3132C28.2308 13.2699 28.1072 13.4318 27.9425 13.5909C27.7777 13.75 27.5661 13.8821 27.3075 13.9872C27.049 14.0923 26.7393 14.1449 26.3786 14.1449ZM26.6555 13.1222C27.0078 13.1222 27.3089 13.0526 27.5589 12.9134C27.8118 12.7741 28.0036 12.5923 28.1342 12.3679C28.2678 12.1406 28.3345 11.8977 28.3345 11.6392V10.7955C28.2891 10.8409 28.201 10.8835 28.0703 10.9233C27.9425 10.9602 27.7962 10.9929 27.6314 11.0213C27.4666 11.0469 27.3061 11.071 27.1499 11.0938C26.9936 11.1136 26.8629 11.1307 26.7578 11.1449C26.5107 11.1761 26.2848 11.2287 26.0803 11.3026C25.8786 11.3764 25.7166 11.483 25.5945 11.6222C25.4751 11.7585 25.4155 11.9403 25.4155 12.1676C25.4155 12.483 25.532 12.7216 25.7649 12.8835C25.9979 13.0426 26.2947 13.1222 26.6555 13.1222ZM31.3058 14V7.45455H32.5799V14H31.3058ZM31.9492 6.4446C31.7276 6.4446 31.5373 6.37074 31.3782 6.22301C31.2219 6.07244 31.1438 5.89347 31.1438 5.68608C31.1438 5.47585 31.2219 5.29687 31.3782 5.14915C31.5373 4.99858 31.7276 4.9233 31.9492 4.9233C32.1708 4.9233 32.3597 4.99858 32.516 5.14915C32.6751 5.29687 32.7546 5.47585 32.7546 5.68608C32.7546 5.89347 32.6751 6.07244 32.516 6.22301C32.3597 6.37074 32.1708 6.4446 31.9492 6.4446ZM36.7443 14.1278C36.2159 14.1278 35.7443 13.9929 35.3295 13.723C34.9176 13.4503 34.5938 13.0625 34.358 12.5597C34.125 12.054 34.0085 11.4474 34.0085 10.7401C34.0085 10.0327 34.1264 9.42756 34.3622 8.92472C34.6009 8.42187 34.9276 8.03693 35.3423 7.76989C35.7571 7.50284 36.2273 7.36932 36.7528 7.36932C37.1591 7.36932 37.4858 7.4375 37.733 7.57386C37.983 7.70739 38.1761 7.86364 38.3125 8.04261C38.4517 8.22159 38.5597 8.37926 38.6364 8.51562H38.7131V5.27273H39.9872V14H38.7429V12.9815H38.6364C38.5597 13.1207 38.4489 13.2798 38.304 13.4588C38.1619 13.6378 37.9659 13.794 37.7159 13.9276C37.4659 14.0611 37.142 14.1278 36.7443 14.1278ZM37.0256 13.0412C37.392 13.0412 37.7017 12.9446 37.9545 12.7514C38.2102 12.5554 38.4034 12.2841 38.5341 11.9375C38.6676 11.5909 38.7344 11.1875 38.7344 10.7273C38.7344 10.2727 38.669 9.875 38.5384 9.53409C38.4077 9.19318 38.2159 8.92756 37.9631 8.73722C37.7102 8.54687 37.3977 8.4517 37.0256 8.4517C36.642 8.4517 36.3224 8.55114 36.0668 8.75C35.8111 8.94886 35.6179 9.22017 35.4872 9.56392C35.3594 9.90767 35.2955 10.2955 35.2955 10.7273C35.2955 11.1648 35.3608 11.5582 35.4915 11.9077C35.6222 12.2571 35.8153 12.5341 36.071 12.7386C36.3295 12.9403 36.6477 13.0412 37.0256 13.0412Z" fill="#007F00"/>
<circle cx="8" cy="10" r="3" fill="#007F00"/>
</svg>
