<svg width="70" height="19" viewBox="0 0 70 19" fill="none" xmlns="http://www.w3.org/2000/svg">
<rect width="62" height="19" rx="9.5" fill="#FFECCC"/>
<path d="M22.571 5.27273H23.892V11.0128C23.892 11.6236 23.7486 12.1648 23.4616 12.6364C23.1747 13.1051 22.7713 13.4744 22.2514 13.7443C21.7315 14.0114 21.1222 14.1449 20.4233 14.1449C19.7273 14.1449 19.1193 14.0114 18.5994 13.7443C18.0795 13.4744 17.6761 13.1051 17.3892 12.6364C17.1023 12.1648 16.9588 11.6236 16.9588 11.0128V5.27273H18.2756V10.9062C18.2756 11.3011 18.3622 11.652 18.5355 11.9588C18.7116 12.2656 18.9602 12.5071 19.2812 12.6832C19.6023 12.8565 19.983 12.9432 20.4233 12.9432C20.8665 12.9432 21.2486 12.8565 21.5696 12.6832C21.8935 12.5071 22.1406 12.2656 22.3111 11.9588C22.4844 11.652 22.571 11.3011 22.571 10.9062V5.27273ZM26.9783 10.1136V14H25.7042V7.45455H26.9272V8.51989H27.0082C27.1587 8.1733 27.3945 7.89489 27.7156 7.68466C28.0394 7.47443 28.4471 7.36932 28.9386 7.36932C29.3846 7.36932 29.7752 7.46307 30.1104 7.65057C30.4457 7.83523 30.7056 8.1108 30.8903 8.47727C31.0749 8.84375 31.1673 9.29687 31.1673 9.83665V14H29.8931V9.99006C29.8931 9.51562 29.7695 9.14489 29.5224 8.87784C29.2752 8.60795 28.9357 8.47301 28.5039 8.47301C28.2085 8.47301 27.9457 8.53693 27.7156 8.66477C27.4883 8.79261 27.3079 8.98011 27.1744 9.22727C27.0437 9.47159 26.9783 9.76705 26.9783 10.1136ZM32.8761 16.4545V7.45455H34.1204V8.51562H34.2269C34.3008 8.37926 34.4073 8.22159 34.5465 8.04261C34.6857 7.86364 34.8789 7.70739 35.1261 7.57386C35.3732 7.4375 35.6999 7.36932 36.1062 7.36932C36.6346 7.36932 37.1062 7.50284 37.521 7.76989C37.9357 8.03693 38.261 8.42187 38.4968 8.92472C38.7354 9.42756 38.8548 10.0327 38.8548 10.7401C38.8548 11.4474 38.7369 12.054 38.5011 12.5597C38.2653 13.0625 37.9414 13.4503 37.5295 13.723C37.1175 13.9929 36.6474 14.1278 36.119 14.1278C35.7212 14.1278 35.396 14.0611 35.1431 13.9276C34.8931 13.794 34.6971 13.6378 34.555 13.4588C34.413 13.2798 34.3036 13.1207 34.2269 12.9815H34.1502V16.4545H32.8761ZM34.1246 10.7273C34.1246 11.1875 34.1914 11.5909 34.3249 11.9375C34.4585 12.2841 34.6516 12.5554 34.9045 12.7514C35.1573 12.9446 35.467 13.0412 35.8335 13.0412C36.2141 13.0412 36.5323 12.9403 36.788 12.7386C37.0437 12.5341 37.2369 12.2571 37.3675 11.9077C37.5011 11.5582 37.5678 11.1648 37.5678 10.7273C37.5678 10.2955 37.5025 9.90767 37.3718 9.56392C37.244 9.22017 37.0508 8.94886 36.7923 8.75C36.5366 8.55114 36.217 8.4517 35.8335 8.4517C35.4641 8.4517 35.1516 8.54687 34.896 8.73722C34.6431 8.92756 34.4513 9.19318 34.3207 9.53409C34.19 9.875 34.1246 10.2727 34.1246 10.7273ZM42.1871 14.1449C41.7724 14.1449 41.3974 14.0682 41.0621 13.9148C40.7269 13.7585 40.4613 13.5327 40.2653 13.2372C40.0721 12.9418 39.9755 12.5795 39.9755 12.1506C39.9755 11.7812 40.0465 11.4773 40.1886 11.2386C40.3306 11 40.5224 10.8111 40.7638 10.6719C41.0053 10.5327 41.2752 10.4276 41.5735 10.3565C41.8718 10.2855 42.1758 10.2315 42.4854 10.1946C42.8775 10.1491 43.1957 10.1122 43.44 10.0838C43.6843 10.0526 43.8619 10.0028 43.9727 9.93466C44.0835 9.86648 44.1388 9.75568 44.1388 9.60227V9.57244C44.1388 9.20028 44.0337 8.91193 43.8235 8.70739C43.6161 8.50284 43.3065 8.40057 42.8945 8.40057C42.4656 8.40057 42.1275 8.49574 41.8803 8.68608C41.636 8.87358 41.467 9.08239 41.3732 9.3125L40.1758 9.03977C40.3178 8.64205 40.5252 8.32102 40.7979 8.0767C41.0735 7.82955 41.3903 7.65057 41.7482 7.53977C42.1062 7.42614 42.4826 7.36932 42.8775 7.36932C43.1388 7.36932 43.4158 7.40057 43.7085 7.46307C44.0039 7.52273 44.2795 7.63352 44.5352 7.79545C44.7937 7.95739 45.0053 8.18892 45.1701 8.49006C45.3349 8.78835 45.4173 9.17614 45.4173 9.65341V14H44.1729V13.1051H44.1218C44.0394 13.2699 43.9158 13.4318 43.7511 13.5909C43.5863 13.75 43.3746 13.8821 43.1161 13.9872C42.8576 14.0923 42.5479 14.1449 42.1871 14.1449ZM42.4641 13.1222C42.8164 13.1222 43.1175 13.0526 43.3675 12.9134C43.6204 12.7741 43.8121 12.5923 43.9428 12.3679C44.0763 12.1406 44.1431 11.8977 44.1431 11.6392V10.7955C44.0977 10.8409 44.0096 10.8835 43.8789 10.9233C43.7511 10.9602 43.6048 10.9929 43.44 11.0213C43.2752 11.0469 43.1147 11.071 42.9585 11.0938C42.8022 11.1136 42.6715 11.1307 42.5664 11.1449C42.3192 11.1761 42.0934 11.2287 41.8888 11.3026C41.6871 11.3764 41.5252 11.483 41.4031 11.6222C41.2837 11.7585 41.2241 11.9403 41.2241 12.1676C41.2241 12.483 41.3406 12.7216 41.5735 12.8835C41.8065 13.0426 42.1033 13.1222 42.4641 13.1222ZM47.1143 14V7.45455H48.3885V14H47.1143ZM47.7578 6.4446C47.5362 6.4446 47.3459 6.37074 47.1868 6.22301C47.0305 6.07244 46.9524 5.89347 46.9524 5.68608C46.9524 5.47585 47.0305 5.29687 47.1868 5.14915C47.3459 4.99858 47.5362 4.9233 47.7578 4.9233C47.9794 4.9233 48.1683 4.99858 48.3246 5.14915C48.4837 5.29687 48.5632 5.47585 48.5632 5.68608C48.5632 5.89347 48.4837 6.07244 48.3246 6.22301C48.1683 6.37074 47.9794 6.4446 47.7578 6.4446ZM52.5529 14.1278C52.0245 14.1278 51.5529 13.9929 51.1381 13.723C50.7262 13.4503 50.4023 13.0625 50.1665 12.5597C49.9336 12.054 49.8171 11.4474 49.8171 10.7401C49.8171 10.0327 49.935 9.42756 50.1708 8.92472C50.4094 8.42187 50.7362 8.03693 51.1509 7.76989C51.5657 7.50284 52.0359 7.36932 52.5614 7.36932C52.9677 7.36932 53.2944 7.4375 53.5415 7.57386C53.7915 7.70739 53.9847 7.86364 54.1211 8.04261C54.2603 8.22159 54.3683 8.37926 54.445 8.51562H54.5217V5.27273H55.7958V14H54.5515V12.9815H54.445C54.3683 13.1207 54.2575 13.2798 54.1126 13.4588C53.9705 13.6378 53.7745 13.794 53.5245 13.9276C53.2745 14.0611 52.9506 14.1278 52.5529 14.1278ZM52.8342 13.0412C53.2006 13.0412 53.5103 12.9446 53.7631 12.7514C54.0188 12.5554 54.212 12.2841 54.3427 11.9375C54.4762 11.5909 54.543 11.1875 54.543 10.7273C54.543 10.2727 54.4776 9.875 54.3469 9.53409C54.2163 9.19318 54.0245 8.92756 53.7717 8.73722C53.5188 8.54687 53.2063 8.4517 52.8342 8.4517C52.4506 8.4517 52.131 8.55114 51.8754 8.75C51.6197 8.94886 51.4265 9.22017 51.2958 9.56392C51.168 9.90767 51.104 10.2955 51.104 10.7273C51.104 11.1648 51.1694 11.5582 51.3001 11.9077C51.4308 12.2571 51.6239 12.5341 51.8796 12.7386C52.1381 12.9403 52.4563 13.0412 52.8342 13.0412Z" fill="#965E00"/>
<circle cx="8" cy="10" r="3" fill="#CE8500"/>
</svg>
